<svg width="178.000000" height="27.000000" viewBox="0 0 178 27" fill="none" xmlns="http://www.w3.org/2000/svg" xmlns:xlink="http://www.w3.org/1999/xlink">
	<desc>
			Created with Pixso.
	</desc>
	<defs>
		<clipPath id="clip602_506">
			<rect id="logo-afalaza 2" width="178.371613" height="27.000000" transform="translate(-0.874756 0.000000)" fill="white" fill-opacity="0"/>
		</clipPath>
	</defs>
	<rect id="logo-afalaza 2" width="178.371613" height="27.000000" transform="translate(-0.874756 0.000000)" fill="#FFFFFF" fill-opacity="0"/>
	<g clip-path="url(#clip602_506)">
		<path id="Vector" d="M13.5 2.54L22.32 25.96L16.46 25.96L14.94 21.58L6.43 21.58L4.95 25.96L-0.88 25.96L7.91 2.54L13.5 2.54ZM13.74 17.6L10.72 8.66L7.64 17.6L13.74 17.6Z" fill="#231F20" fill-opacity="1.000000" fill-rule="nonzero"/>
		<path id="Vector" d="M34.93 23.53L34.03 23.53C25.01 23.53 23 17.77 23 14.03C23 10.38 25.01 4.53 34.03 4.53L34.93 4.53L34.93 1.22L40.47 1.22L40.47 4.53L41.34 4.53C50.43 4.53 52.4 10.39 52.4 14.03C52.4 17.78 50.42 23.53 41.34 23.53L40.47 23.53L40.47 26.84L34.93 26.84L34.93 23.53ZM35.44 8.97L35 8.97C33.85 8.97 28.76 8.8 28.76 14.02C28.76 16.43 29.76 19.07 35 19.07L35.44 19.07L35.44 8.97ZM40.4 19.08C44.28 19.08 46.63 17.67 46.63 14.03C46.63 8.81 41.53 8.97 40.4 8.97L39.96 8.97L39.96 19.09L40.4 19.09L40.4 19.08Z" fill="#231F20" fill-opacity="1.000000" fill-rule="nonzero"/>
		<path id="Vector" d="M67.56 2.54L76.38 25.96L70.52 25.96L69.01 21.58L60.49 21.58L59.02 25.96L53.18 25.96L61.97 2.54L67.56 2.54ZM67.79 17.6L64.78 8.66L61.69 17.6L67.79 17.6Z" fill="#231F20" fill-opacity="1.000000" fill-rule="nonzero"/>
		<path id="Vector" d="M76.48 21.41C81.68 22.08 81.88 17.66 81.95 13.72L82.12 2.54L99.49 2.54L99.49 25.96L93.96 25.96L93.96 7.1L87.35 7.1L87.18 15.27C87.08 19.79 86.34 27.35 76.48 25.98L76.48 21.41Z" fill="#231F20" fill-opacity="1.000000" fill-rule="nonzero"/>
		<path id="Vector" d="M116.21 2.54L125.03 25.96L119.16 25.96L117.65 21.58L109.13 21.58L107.66 25.96L101.82 25.96L110.61 2.54L116.21 2.54ZM116.46 17.6L113.44 8.66L110.35 17.6L116.46 17.6Z" fill="#231F20" fill-opacity="1.000000" fill-rule="nonzero"/>
		<path id="Vector" d="M131.25 17.91C131.35 20.32 132.79 22.09 136.78 22.09C140.7 22.09 141.54 20.32 141.54 19.01C141.54 16.33 138.85 16.16 137.52 16.16L134.2 16.16L134.2 11.85L136.95 11.85C138.52 11.85 140.81 11.58 140.81 9.24C140.81 6.39 137.02 6.43 136.25 6.43C135.04 6.43 132.12 6.5 131.96 10.14L126.56 10.14C126.93 3.78 130.85 1.87 136.85 1.87C142.11 1.87 146.78 3.51 146.78 8.45C146.78 12.18 143.99 13.31 142.32 13.61L142.32 13.68C145.64 14.35 147.52 15.99 147.52 19.6C147.52 25.56 141.72 26.62 136.62 26.62C131.82 26.62 126.26 25.56 125.88 17.89L131.25 17.89L131.25 17.91Z" fill="#231F20" fill-opacity="1.000000" fill-rule="nonzero"/>
		<path id="Vector" d="M163.3 2.54L172.12 25.96L166.25 25.96L164.75 21.58L156.23 21.58L154.75 25.96L148.92 25.96L157.71 2.54L163.3 2.54ZM163.53 17.6L160.52 8.66L157.43 17.6L163.53 17.6Z" fill="#231F20" fill-opacity="1.000000" fill-rule="nonzero"/>
		<path id="Vector" d="M172.78 1.07C173.04 1.02 173.42 0.99 173.79 0.99C174.36 0.99 174.72 1.08 174.97 1.29C175.17 1.45 175.29 1.7 175.29 1.99C175.29 2.47 174.95 2.79 174.52 2.92L174.52 2.94C174.83 3.04 175.02 3.3 175.12 3.68C175.25 4.19 175.35 4.54 175.43 4.68L174.89 4.68C174.82 4.58 174.73 4.26 174.62 3.81C174.5 3.3 174.28 3.11 173.8 3.1L173.31 3.1L173.31 4.68L172.79 4.68L172.79 1.07L172.78 1.07ZM173.3 2.74L173.84 2.74C174.41 2.74 174.77 2.46 174.77 2.05C174.77 1.58 174.39 1.37 173.83 1.37C173.58 1.37 173.4 1.39 173.31 1.41L173.31 2.74L173.3 2.74Z" fill="#231F20" fill-opacity="1.000000" fill-rule="nonzero"/>
		<path id="Vector" d="M173.97 5.68C172.4 5.68 171.13 4.39 171.13 2.83C171.13 1.27 172.41 0 173.97 0C175.54 0 176.82 1.27 176.82 2.83C176.82 4.39 175.55 5.68 173.97 5.68ZM173.97 0.41C172.63 0.41 171.55 1.5 171.55 2.83C171.55 4.16 172.64 5.25 173.97 5.25C175.32 5.25 176.4 4.16 176.4 2.83C176.41 1.5 175.32 0.41 173.97 0.41Z" fill="#231F20" fill-opacity="1.000000" fill-rule="nonzero"/>
	</g>
</svg>
